<svg width="10" height="10" viewBox="0 0 10 10" fill="none" xmlns="http://www.w3.org/2000/svg">
<path fill-rule="evenodd" clip-rule="evenodd" d="M10 10H7.94531V6.50041C7.94531 5.54091 7.58073 5.00472 6.82129 5.00472C5.99512 5.00472 5.56348 5.56271 5.56348 6.50041V10H3.58333V3.33333H5.56348V4.23133C5.56348 4.23133 6.15885 3.12966 7.57357 3.12966C8.98763 3.12966 10 3.99317 10 5.77908V10ZM1.22103 2.46039C0.546549 2.46039 0 1.90955 0 1.23019C0 0.550838 0.546549 0 1.22103 0C1.89551 0 2.44173 0.550838 2.44173 1.23019C2.44173 1.90955 1.89551 2.46039 1.22103 2.46039ZM0.198568 10H2.26335V3.33333H0.198568V10Z" fill="#2E64BC"/>
</svg>
