<svg width="40" height="40" viewBox="0 0 40 40" fill="none" xmlns="http://www.w3.org/2000/svg">
<path d="M35.5941 15.9597C33.7511 8.84408 27.3439 3.87469 20.0008 3.87469H19.7272C9.59079 4.04753 1.58534 13.727 4.4938 24.4292C4.88255 25.8552 5.48728 27.2236 6.29358 28.4768C9.41802 33.3453 14.4718 36.1109 20.0008 36.1109C26.1344 36.1109 32.4265 31.8905 34.7014 26.2874C35.1046 26.0137 35.4933 25.8985 35.9109 25.8985C36.674 25.8985 37.4371 26.345 37.8547 27.0364C38.085 27.4253 38.4018 28.2031 37.8834 29.1538C33.9239 36.6006 25.8321 40 19.9864 40C14.515 40 9.38922 37.825 5.58807 33.8495C1.78692 29.9028 -0.200048 24.7029 0.0159266 19.215C0.419079 8.84408 8.84208 0.417717 19.2089 0.014404C19.468 0.014404 19.7416 0 20.0008 0C31.0299 0 40 8.97371 40 20.0072C40 21.0731 39.1361 21.9517 38.0562 21.9517H16.1564V18.0627H35.2198C35.6229 18.0627 36.0261 17.7026 35.9541 17.2992L35.6085 15.9741L35.5941 15.9597Z" fill="#0C6175"/>
<path d="M28.6688 21.9518V18.0627H11.4917V21.9518H28.6688Z" fill="url(#paint0_linear_12283_605)"/>
<path d="M20.001 32.2506C17.1502 32.2506 14.3857 31.2568 12.1972 29.4707C11.2325 28.6784 11.4341 27.7134 11.5636 27.3389C11.8516 26.5322 12.6003 25.9561 13.3778 25.9561C13.7378 25.9561 14.1121 26.0713 14.4721 26.3018C16.0127 27.627 17.9709 28.3616 20.001 28.3616C20.001 28.3616 20.2314 28.3616 20.3466 28.3616C24.9253 28.1743 28.5392 24.2996 28.4097 19.7047C28.2801 15.1963 24.5077 11.5232 20.001 11.5232C16.3295 11.5232 13.0467 13.8999 12.01 17.3137L11.794 18.0483H12.0676V21.9374H9.02954C8.30963 21.9374 7.7193 21.3468 7.7193 20.6266V19.9496C7.7193 13.1653 13.2338 7.64856 20.0154 7.64856C20.2314 7.64856 20.4618 7.64856 20.6922 7.66296C26.869 7.99426 31.9804 13.0933 32.2972 19.2726C32.4844 22.6864 31.2893 25.9273 28.9424 28.4048C26.5955 30.8823 23.4278 32.2506 20.0154 32.2506H20.001Z" fill="#1280A3"/>
<defs>
<linearGradient id="paint0_linear_12283_605" x1="27.2002" y1="20.0216" x2="12.7443" y2="19.9928" gradientUnits="userSpaceOnUse">
<stop stop-color="#0C6175"/>
<stop offset="1" stop-color="#1280A3"/>
</linearGradient>
</defs>
</svg>
